<svg xmlns="http://www.w3.org/2000/svg" xmlns:xlink="http://www.w3.org/1999/xlink" width="290" zoomAndPan="magnify" viewBox="0 0 217.5 215.249992" height="287" preserveAspectRatio="xMidYMid meet" version="1.0"><defs><clipPath id="33e212b3c7"><path d="M 0.128906 0 L 216.875 0 L 216.875 214.503906 L 0.128906 214.503906 Z M 0.128906 0 " clip-rule="nonzero"/></clipPath><clipPath id="7c45e5a50f"><path d="M 0.128906 0 L 216.875 0 L 216.875 213.753906 L 0.128906 213.753906 Z M 0.128906 0 " clip-rule="nonzero"/></clipPath><clipPath id="c3ba08ca55"><path d="M 191 99 L 216.558594 99 L 216.558594 201 L 191 201 Z M 191 99 " clip-rule="nonzero"/></clipPath><clipPath id="085fb212d6"><path d="M 0.128906 99 L 26 99 L 26 201 L 0.128906 201 Z M 0.128906 99 " clip-rule="nonzero"/></clipPath><clipPath id="ebcea9576e"><rect x="0" width="217" y="0" height="214"/></clipPath><clipPath id="92b41bc751"><path d="M 191 99 L 216.558594 99 L 216.558594 201 L 191 201 Z M 191 99 " clip-rule="nonzero"/></clipPath><clipPath id="651b17440a"><path d="M 0.128906 99 L 26 99 L 26 201 L 0.128906 201 Z M 0.128906 99 " clip-rule="nonzero"/></clipPath><clipPath id="1f5de7c4c2"><rect x="0" width="217" y="0" height="214"/></clipPath></defs><g clip-path="url(#33e212b3c7)"><path fill="#ffffff" d="M 0.128906 0 L 216.875 0 L 216.875 214.503906 L 0.128906 214.503906 Z M 0.128906 0 " fill-opacity="1" fill-rule="nonzero"/></g><g clip-path="url(#7c45e5a50f)"><g><g clip-path="url(#ebcea9576e)"><path fill="#9cb4cc" d="M 204.746094 46.667969 L 205.414062 46.855469 L 192.507812 92.488281 L 191.839844 92.300781 Z M 204.746094 46.667969 " fill-opacity="1" fill-rule="nonzero"/><path fill="#9cb4cc" d="M 201.800781 46.667969 L 202.46875 46.855469 L 189.558594 92.488281 L 188.894531 92.300781 Z M 201.800781 46.667969 " fill-opacity="1" fill-rule="nonzero"/><path fill="#9cb4cc" d="M 181.148438 15.941406 L 205.351562 46.546875 L 204.808594 46.976562 L 180.601562 16.371094 Z M 181.148438 15.941406 " fill-opacity="1" fill-rule="nonzero"/><path fill="#9cb4cc" d="M 178.929688 16.867188 L 202.40625 46.550781 L 201.863281 46.976562 L 178.386719 17.292969 Z M 178.929688 16.867188 " fill-opacity="1" fill-rule="nonzero"/><path fill="#9cb4cc" d="M 180.957031 16.445312 L 181.164062 17.105469 L 158.289062 24.277344 L 158.082031 23.617188 Z M 180.957031 16.445312 " fill-opacity="1" fill-rule="nonzero"/><path fill="#f2d7d9" d="M 168.328125 99.050781 L 190.425781 199.652344 L 185.296875 200.398438 L 164.96875 99.753906 Z M 168.328125 99.050781 " fill-opacity="1" fill-rule="nonzero"/><g clip-path="url(#c3ba08ca55)"><path fill="#f2d7d9" d="M 194.453125 99.050781 L 216.550781 199.652344 L 211.417969 200.398438 L 191.09375 99.753906 Z M 194.453125 99.050781 " fill-opacity="1" fill-rule="nonzero"/></g><path fill="#f2d7d9" d="M 73.445312 131.078125 L 62.363281 204.003906 L 58.742188 203.1875 L 71.019531 130.691406 Z M 73.445312 131.078125 " fill-opacity="1" fill-rule="nonzero"/><path fill="#f2d7d9" d="M 87.351562 44.953125 C 90.460938 44.527344 79.125 38.996094 65.875 44.289062 C 52.625 49.585938 41.949219 110.164062 54.824219 127.519531 C 67.703125 144.878906 94.746094 143.445312 94.746094 143.445312 L 133.796875 137.910156 Z M 87.351562 44.953125 " fill-opacity="1" fill-rule="nonzero"/><path fill="#9cb4cc" d="M 64.394531 45.117188 C 71.261719 45.152344 57.523438 109.527344 68.132812 124.246094 C 79.40625 139.882812 97.71875 136.265625 97.71875 136.265625 L 98.453125 142.925781 L 94.742188 143.449219 C 94.742188 143.449219 94.636719 143.457031 94.4375 143.460938 C 94.234375 143.46875 93.9375 143.476562 93.554688 143.476562 C 93.308594 143.480469 93.007812 143.476562 92.691406 143.476562 C 92.566406 143.472656 92.441406 143.472656 92.304688 143.472656 C 92.230469 143.46875 92.15625 143.46875 92.082031 143.46875 C 91.832031 143.460938 91.574219 143.457031 91.296875 143.445312 C 91.019531 143.4375 90.726562 143.421875 90.421875 143.410156 C 90.335938 143.40625 90.246094 143.398438 90.15625 143.394531 C 89.929688 143.382812 89.695312 143.367188 89.453125 143.355469 C 89.347656 143.347656 89.242188 143.339844 89.136719 143.332031 C 88.800781 143.308594 88.453125 143.285156 88.09375 143.253906 C 88.09375 143.253906 88.085938 143.253906 88.085938 143.253906 C 87.816406 143.230469 87.542969 143.207031 87.265625 143.179688 C 87.210938 143.175781 87.15625 143.167969 87.105469 143.164062 C 86.824219 143.136719 86.539062 143.105469 86.246094 143.074219 C 85.785156 143.023438 85.3125 142.964844 84.828125 142.902344 C 83.898438 142.777344 82.929688 142.632812 81.925781 142.453125 C 81.425781 142.363281 80.914062 142.265625 80.398438 142.160156 C 79.882812 142.058594 79.359375 141.945312 78.828125 141.820312 C 78.765625 141.808594 78.703125 141.792969 78.636719 141.777344 C 78.238281 141.683594 77.835938 141.585938 77.429688 141.480469 C 77.359375 141.464844 77.292969 141.445312 77.226562 141.429688 C 77.128906 141.402344 77.027344 141.375 76.929688 141.351562 C 76.757812 141.304688 76.585938 141.257812 76.414062 141.210938 C 76.25 141.167969 76.085938 141.121094 75.921875 141.074219 C 75.8125 141.042969 75.703125 141.011719 75.597656 140.980469 C 74.503906 140.660156 73.398438 140.300781 72.289062 139.898438 C 72.277344 139.894531 72.269531 139.890625 72.257812 139.886719 C 72.019531 139.800781 71.78125 139.710938 71.542969 139.617188 C 71.464844 139.589844 71.390625 139.5625 71.316406 139.53125 C 71.128906 139.457031 70.941406 139.382812 70.753906 139.308594 C 70.6875 139.28125 70.621094 139.253906 70.554688 139.226562 C 70.308594 139.128906 70.066406 139.027344 69.820312 138.921875 C 69.8125 138.917969 69.800781 138.914062 69.792969 138.910156 C 69.242188 138.675781 68.6875 138.425781 68.140625 138.164062 C 67.863281 138.03125 67.589844 137.898438 67.316406 137.757812 C 67.183594 137.691406 67.054688 137.625 66.921875 137.554688 C 66.78125 137.484375 66.640625 137.410156 66.5 137.335938 C 65.957031 137.046875 65.417969 136.746094 64.882812 136.429688 C 64.613281 136.273438 64.347656 136.113281 64.085938 135.945312 C 63.953125 135.863281 63.820312 135.78125 63.6875 135.695312 C 63.425781 135.527344 63.164062 135.355469 62.902344 135.179688 C 62.773438 135.09375 62.644531 135.003906 62.515625 134.914062 C 62.425781 134.851562 62.332031 134.785156 62.242188 134.722656 C 62.203125 134.695312 62.167969 134.667969 62.128906 134.640625 C 62.09375 134.617188 62.058594 134.589844 62.023438 134.566406 C 61.929688 134.496094 61.839844 134.429688 61.746094 134.363281 C 61.492188 134.175781 61.238281 133.984375 60.988281 133.789062 C 60.886719 133.710938 60.789062 133.632812 60.691406 133.554688 C 60.664062 133.535156 60.640625 133.515625 60.613281 133.496094 C 60.589844 133.476562 60.566406 133.457031 60.542969 133.4375 C 60.441406 133.355469 60.339844 133.277344 60.242188 133.195312 C 60.074219 133.054688 59.90625 132.914062 59.738281 132.769531 C 59.707031 132.742188 59.675781 132.71875 59.644531 132.691406 C 59.480469 132.546875 59.3125 132.402344 59.148438 132.253906 C 58.789062 131.933594 58.433594 131.601562 58.085938 131.257812 C 57.96875 131.144531 57.855469 131.03125 57.742188 130.914062 C 57.625 130.800781 57.511719 130.683594 57.398438 130.566406 C 57.398438 130.5625 57.398438 130.5625 57.398438 130.5625 C 56.496094 129.621094 55.632812 128.609375 54.828125 127.523438 C 42.4375 110.816406 51.859375 54.070312 64.402344 45.117188 Z M 64.394531 45.117188 " fill-opacity="1" fill-rule="nonzero"/><path fill="#9cb4cc" d="M 76.011719 83.507812 C 76.011719 83.507812 68.347656 124.992188 78.40625 131.875 C 85.546875 136.765625 87.570312 137.207031 86.609375 154 C 85.859375 167.136719 78.984375 187.914062 79.140625 198.425781 C 79.21875 203.636719 82.625 206.609375 95.460938 210.128906 C 108.300781 213.652344 164.054688 208.238281 165.347656 203.40625 C 163.578125 166.746094 156.425781 138.769531 146.515625 128.230469 C 136.605469 117.695312 127.738281 119.871094 128.390625 96.84375 Z M 76.011719 83.507812 " fill-opacity="1" fill-rule="nonzero"/><path fill="#748da6" d="M 91.21875 94.445312 C 102.917969 94.457031 116.800781 96.964844 128.382812 97.292969 C 127.855469 119.84375 136.671875 117.769531 146.515625 128.234375 C 147.285156 129.050781 148.035156 129.972656 148.765625 130.992188 C 130.707031 135.867188 101.535156 122.210938 84.273438 136.453125 C 82.929688 134.851562 81.007812 133.660156 78.40625 131.878906 C 72.25 127.664062 72.734375 110.492188 74.039062 97.796875 C 78.46875 95.257812 84.480469 94.4375 91.21875 94.445312 Z M 91.21875 94.445312 " fill-opacity="1" fill-rule="nonzero"/><path fill="#9cb4cc" d="M 125.75 71.378906 C 117.648438 76.355469 98.128906 104 118.871094 104.777344 C 126.832031 101.949219 141.976562 93.339844 142.835938 89.507812 C 143.695312 85.675781 128.21875 54.238281 124.03125 50.761719 C 120.996094 48.238281 114.90625 44.25 110.585938 43.839844 C 109.746094 46.617188 106.984375 48.226562 104.84375 48.277344 C 102.707031 48.332031 100.070312 46.917969 98.984375 44.042969 C 94.808594 44.460938 86.757812 47.160156 84.414062 48.757812 C 80.058594 51.722656 68.265625 85.675781 69.125 89.507812 C 69.984375 93.34375 85.132812 101.949219 93.089844 104.777344 C 118 92.230469 84.886719 86.277344 86.210938 71.378906 L 79.332031 104.265625 L 132.628906 104.265625 Z M 125.75 71.378906 " fill-opacity="1" fill-rule="nonzero"/><path fill="#d3cedf" d="M 107.132812 5.367188 C 110.386719 5.367188 113.457031 6.128906 115.847656 6.695312 C 117.847656 7.167969 126.050781 10.96875 124.402344 30.613281 C 123.585938 40.328125 127.429688 51.375 129.453125 56.113281 C 131.378906 60.621094 142.207031 82.277344 143.421875 86.800781 C 144.640625 91.328125 128.679688 88.269531 114.621094 99.839844 C 103.636719 99.660156 102.667969 97.734375 94.839844 92.089844 C 89.789062 88.449219 79.925781 95.320312 75.570312 100.714844 C 67.558594 110.636719 60.226562 101.839844 60.488281 101.339844 C 70.527344 73.207031 84.210938 33.925781 90.753906 17.988281 C 94.941406 7.773438 101.332031 5.367188 107.132812 5.367188 Z M 107.132812 5.367188 " fill-opacity="1" fill-rule="nonzero"/><path fill="#ffe6d5" d="M 114.644531 8.890625 C 114.742188 8.890625 114.835938 8.894531 114.929688 8.898438 C 121 9.277344 123.746094 18.890625 123.136719 28.617188 C 122.527344 38.34375 114.128906 41.621094 112.421875 41.511719 C 110.710938 41.40625 98.832031 35.351562 99.246094 28.742188 C 99.847656 19.164062 108.582031 8.847656 114.644531 8.890625 Z M 114.644531 8.890625 " fill-opacity="1" fill-rule="nonzero"/><path fill="#f2d7d9" d="M 213.152344 98.664062 L 54.835938 98.664062 L 54.835938 105.960938 L 213.152344 105.960938 Z M 213.152344 98.664062 " fill-opacity="1" fill-rule="nonzero"/><path fill="#748da6" d="M 157.589844 68.410156 L 106.808594 68.410156 L 103.734375 98.664062 L 149.792969 98.664062 Z M 157.589844 68.410156 " fill-opacity="1" fill-rule="nonzero"/><path fill="#d3cedf" d="M 125.511719 84.003906 C 125.183594 85.835938 127.921875 87.320312 128.796875 87.320312 C 129.671875 87.320312 132.945312 85.835938 133.273438 84.003906 C 133.601562 82.175781 131.453125 80.820312 129.53125 82.730469 C 127.914062 80.800781 125.839844 82.175781 125.511719 84.003906 Z M 125.511719 84.003906 " fill-opacity="1" fill-rule="nonzero"/><path fill="#f2d7d9" d="M 111.84375 36.125 C 111.839844 36.164062 111.894531 36.207031 112 36.253906 C 112.109375 36.296875 112.265625 36.34375 112.472656 36.390625 C 112.675781 36.4375 112.914062 36.480469 113.183594 36.519531 C 113.449219 36.558594 113.730469 36.59375 114.023438 36.617188 C 114.316406 36.644531 114.601562 36.664062 114.871094 36.675781 C 115.144531 36.6875 115.382812 36.6875 115.59375 36.679688 C 115.804688 36.671875 115.964844 36.65625 116.082031 36.632812 C 116.195312 36.605469 116.257812 36.574219 116.257812 36.535156 C 116.261719 36.5 116.210938 36.457031 116.101562 36.410156 C 115.992188 36.367188 115.835938 36.320312 115.632812 36.273438 C 115.425781 36.226562 115.191406 36.183594 114.921875 36.144531 C 114.652344 36.105469 114.371094 36.070312 114.078125 36.042969 C 113.785156 36.015625 113.503906 35.996094 113.230469 35.988281 C 112.960938 35.976562 112.71875 35.976562 112.507812 35.984375 C 112.300781 35.992188 112.136719 36.007812 112.023438 36.03125 C 111.90625 36.058594 111.847656 36.089844 111.84375 36.125 Z M 111.84375 36.125 " fill-opacity="1" fill-rule="nonzero"/><path fill="#f2d7d9" d="M 107.132812 5.367188 C 109.703125 5.371094 112.15625 5.84375 114.253906 6.324219 C 114.28125 6.328125 114.308594 6.335938 114.335938 6.34375 C 112.109375 6.171875 109.882812 6.984375 107.613281 8.53125 C 101.898438 12.425781 96.875 21.214844 95.910156 25.261719 L 91.839844 24.296875 C 93.046875 19.230469 98.140625 10.648438 104.238281 5.589844 C 105.210938 5.433594 106.179688 5.367188 107.132812 5.367188 Z M 107.132812 5.367188 " fill-opacity="1" fill-rule="nonzero"/><path fill="#f2d7d9" d="M 94.300781 24.644531 C 95.824219 29.375 97.816406 31.90625 100.148438 33.382812 C 102.480469 34.863281 105.203125 35.300781 108.21875 35.683594 L 108.109375 36.558594 C 105.078125 36.175781 102.203125 35.734375 99.671875 34.128906 C 97.144531 32.527344 95.019531 29.773438 93.457031 24.914062 Z M 94.300781 24.644531 " fill-opacity="1" fill-rule="nonzero"/><path fill="#748da6" d="M 92.46875 28.800781 C 92.90625 28.964844 93.347656 29.050781 93.796875 29.050781 C 94.246094 29.050781 94.667969 28.96875 95.058594 28.804688 C 95.453125 28.640625 95.789062 28.40625 96.066406 28.101562 C 96.347656 27.796875 96.546875 27.445312 96.667969 27.046875 C 96.789062 26.648438 96.820312 26.234375 96.765625 25.800781 C 96.710938 25.371094 96.570312 24.953125 96.347656 24.554688 C 96.128906 24.15625 95.835938 23.804688 95.480469 23.5 C 95.125 23.191406 94.730469 22.957031 94.292969 22.792969 C 93.859375 22.625 93.417969 22.542969 92.96875 22.542969 C 92.519531 22.539062 92.097656 22.621094 91.703125 22.789062 C 91.308594 22.953125 90.972656 23.1875 90.695312 23.492188 C 90.417969 23.796875 90.21875 24.148438 90.097656 24.546875 C 89.976562 24.945312 89.941406 25.359375 89.996094 25.789062 C 90.054688 26.222656 90.191406 26.636719 90.414062 27.035156 C 90.636719 27.433594 90.925781 27.789062 91.28125 28.09375 C 91.636719 28.398438 92.035156 28.632812 92.46875 28.800781 Z M 92.46875 28.800781 " fill-opacity="1" fill-rule="nonzero"/><path fill="#748da6" d="M 108.296875 37.355469 C 108.492188 37.394531 108.6875 37.402344 108.875 37.382812 C 109.066406 37.363281 109.238281 37.320312 109.394531 37.246094 C 109.550781 37.175781 109.679688 37.082031 109.777344 36.96875 C 109.878906 36.855469 109.941406 36.730469 109.96875 36.589844 C 109.992188 36.453125 109.980469 36.3125 109.933594 36.167969 C 109.882812 36.027344 109.796875 35.894531 109.679688 35.769531 C 109.558594 35.644531 109.414062 35.539062 109.246094 35.453125 C 109.078125 35.363281 108.894531 35.300781 108.699219 35.265625 C 108.503906 35.226562 108.3125 35.21875 108.121094 35.238281 C 107.933594 35.253906 107.761719 35.300781 107.601562 35.371094 C 107.445312 35.445312 107.320312 35.539062 107.21875 35.652344 C 107.121094 35.765625 107.058594 35.890625 107.03125 36.03125 C 107.003906 36.167969 107.015625 36.308594 107.066406 36.453125 C 107.117188 36.59375 107.199219 36.726562 107.320312 36.851562 C 107.4375 36.976562 107.582031 37.082031 107.753906 37.167969 C 107.921875 37.257812 108.105469 37.320312 108.296875 37.355469 Z M 108.296875 37.355469 " fill-opacity="1" fill-rule="nonzero"/><path fill="#f2d7d9" d="M 61.347656 2.820312 L 80.320312 2.820312 C 80.550781 2.820312 80.773438 2.867188 80.984375 2.953125 C 81.199219 3.042969 81.386719 3.167969 81.546875 3.328125 C 81.710938 3.492188 81.835938 3.679688 81.925781 3.890625 C 82.011719 4.101562 82.058594 4.324219 82.058594 4.554688 L 82.058594 12.8125 C 82.058594 13.042969 82.011719 13.261719 81.925781 13.472656 C 81.835938 13.6875 81.710938 13.875 81.546875 14.035156 C 81.386719 14.199219 81.199219 14.324219 80.984375 14.410156 C 80.773438 14.5 80.550781 14.542969 80.320312 14.542969 L 61.347656 14.542969 C 61.117188 14.542969 60.894531 14.5 60.683594 14.410156 C 60.46875 14.324219 60.28125 14.199219 60.121094 14.035156 C 59.957031 13.875 59.832031 13.6875 59.742188 13.472656 C 59.65625 13.261719 59.609375 13.042969 59.609375 12.8125 L 59.609375 4.554688 C 59.609375 4.324219 59.65625 4.101562 59.742188 3.890625 C 59.832031 3.679688 59.957031 3.492188 60.121094 3.328125 C 60.28125 3.167969 60.46875 3.042969 60.683594 2.953125 C 60.894531 2.867188 61.117188 2.820312 61.347656 2.820312 Z M 61.347656 2.820312 " fill-opacity="1" fill-rule="nonzero"/><path fill="#f2d7d9" d="M 75.914062 13.914062 L 78.96875 18.839844 L 79 12.386719 Z M 75.914062 13.914062 " fill-opacity="1" fill-rule="nonzero"/><path fill="#748da6" d="M 77.574219 5.371094 C 77.648438 5.371094 77.6875 5.410156 77.6875 5.480469 C 77.683594 5.554688 77.648438 5.59375 77.574219 5.59375 L 61.414062 5.59375 C 61.339844 5.59375 61.304688 5.554688 61.300781 5.480469 C 61.300781 5.410156 61.339844 5.371094 61.414062 5.371094 Z M 80.398438 8.292969 C 80.472656 8.292969 80.507812 8.328125 80.507812 8.402344 C 80.507812 8.476562 80.472656 8.515625 80.398438 8.511719 L 76.46875 8.511719 C 76.394531 8.511719 76.355469 8.476562 76.355469 8.402344 C 76.359375 8.328125 76.394531 8.292969 76.46875 8.292969 Z M 75.859375 8.292969 C 75.933594 8.292969 75.96875 8.328125 75.96875 8.402344 C 75.96875 8.476562 75.933594 8.515625 75.859375 8.511719 L 65.269531 8.511719 C 65.195312 8.515625 65.160156 8.476562 65.160156 8.402344 C 65.160156 8.328125 65.195312 8.292969 65.269531 8.292969 Z M 64.878906 8.292969 C 64.953125 8.292969 64.988281 8.328125 64.988281 8.402344 C 64.988281 8.476562 64.953125 8.511719 64.878906 8.511719 L 61.414062 8.511719 C 61.339844 8.515625 61.300781 8.476562 61.300781 8.402344 C 61.304688 8.328125 61.339844 8.292969 61.414062 8.292969 Z M 80.398438 11.214844 C 80.472656 11.214844 80.507812 11.25 80.507812 11.324219 C 80.507812 11.398438 80.472656 11.433594 80.398438 11.433594 L 68.167969 11.433594 C 68.09375 11.433594 68.054688 11.398438 68.054688 11.324219 C 68.054688 11.25 68.09375 11.214844 68.167969 11.214844 Z M 66.726562 11.214844 C 66.800781 11.214844 66.839844 11.25 66.835938 11.324219 C 66.835938 11.398438 66.800781 11.433594 66.726562 11.433594 L 61.414062 11.433594 C 61.339844 11.433594 61.304688 11.398438 61.304688 11.324219 C 61.304688 11.25 61.339844 11.214844 61.414062 11.214844 Z M 66.726562 11.214844 " fill-opacity="1" fill-rule="nonzero"/><path fill="#748da6" d="M 114.09375 108.832031 C 119.207031 108.824219 124.390625 109.117188 129.5 109.785156 C 132.144531 119.570312 139.03125 120.277344 146.515625 128.234375 C 153.507812 135.664062 159.125 151.777344 162.453125 173.492188 C 158.390625 157.335938 151.855469 134.277344 136.058594 133.722656 C 127.421875 133.417969 120.648438 136.558594 112.8125 134.605469 C 91.378906 129.261719 89.824219 151.035156 83.140625 177.003906 C 82.96875 177.675781 82.71875 177.910156 82.40625 177.773438 C 84.238281 169.449219 86.226562 160.726562 86.609375 154 C 87.570312 137.207031 85.546875 136.765625 78.402344 131.875 C 75.015625 129.558594 73.640625 123.308594 73.304688 116.042969 C 77.515625 112.542969 84.871094 111.789062 89.5625 110.976562 C 97.097656 109.675781 105.496094 108.835938 114.089844 108.828125 Z M 114.09375 108.832031 " fill-opacity="1" fill-rule="nonzero"/><path fill="#f2d7d9" d="M 54.835938 98.664062 L 16.125 98.664062 L 16.125 105.960938 L 54.835938 105.960938 Z M 54.835938 98.664062 " fill-opacity="1" fill-rule="nonzero"/><path fill="#f2d7d9" d="M 48.027344 99.050781 L 25.929688 199.652344 L 31.0625 200.398438 L 51.386719 99.753906 Z M 48.027344 99.050781 " fill-opacity="1" fill-rule="nonzero"/><g clip-path="url(#085fb212d6)"><path fill="#f2d7d9" d="M 21.90625 99.050781 L -0.191406 199.652344 L 4.9375 200.398438 L 25.261719 99.753906 Z M 21.90625 99.050781 " fill-opacity="1" fill-rule="nonzero"/></g><path fill="#748da6" d="M 200.308594 46.910156 C 200.308594 47.296875 200.382812 47.667969 200.53125 48.023438 C 200.679688 48.382812 200.890625 48.695312 201.164062 48.96875 C 201.4375 49.242188 201.753906 49.453125 202.109375 49.601562 C 202.46875 49.746094 202.839844 49.820312 203.226562 49.820312 C 203.613281 49.820312 203.984375 49.746094 204.34375 49.601562 C 204.699219 49.453125 205.015625 49.242188 205.289062 48.96875 C 205.5625 48.695312 205.773438 48.382812 205.921875 48.023438 C 206.070312 47.667969 206.144531 47.296875 206.144531 46.910156 C 206.144531 46.527344 206.070312 46.152344 205.921875 45.796875 C 205.773438 45.441406 205.5625 45.125 205.289062 44.851562 C 205.015625 44.582031 204.699219 44.371094 204.34375 44.222656 C 203.984375 44.074219 203.613281 44 203.226562 44 C 202.839844 44 202.46875 44.074219 202.109375 44.222656 C 201.753906 44.371094 201.4375 44.582031 201.164062 44.851562 C 200.890625 45.125 200.679688 45.441406 200.53125 45.796875 C 200.382812 46.152344 200.308594 46.527344 200.308594 46.910156 Z M 200.308594 46.910156 " fill-opacity="1" fill-rule="nonzero"/><path fill="#748da6" d="M 177.613281 16.953125 C 177.613281 17.234375 177.667969 17.503906 177.773438 17.761719 C 177.882812 18.019531 178.035156 18.246094 178.234375 18.445312 C 178.429688 18.640625 178.660156 18.792969 178.917969 18.898438 C 179.175781 19.007812 179.445312 19.058594 179.726562 19.058594 C 180.003906 19.058594 180.273438 19.007812 180.535156 18.898438 C 180.792969 18.792969 181.019531 18.640625 181.21875 18.445312 C 181.417969 18.246094 181.570312 18.019531 181.675781 17.761719 C 181.785156 17.503906 181.835938 17.234375 181.835938 16.953125 C 181.835938 16.675781 181.785156 16.40625 181.675781 16.148438 C 181.570312 15.890625 181.417969 15.664062 181.21875 15.464844 C 181.019531 15.269531 180.792969 15.117188 180.535156 15.007812 C 180.273438 14.902344 180.003906 14.847656 179.726562 14.847656 C 179.445312 14.847656 179.175781 14.902344 178.917969 15.007812 C 178.660156 15.117188 178.429688 15.269531 178.234375 15.464844 C 178.035156 15.664062 177.882812 15.890625 177.773438 16.148438 C 177.667969 16.40625 177.613281 16.675781 177.613281 16.953125 Z M 177.613281 16.953125 " fill-opacity="1" fill-rule="nonzero"/><path fill="#9cb4cc" d="M 163.667969 21.246094 C 164.347656 21.578125 165.714844 22.300781 165.863281 22.734375 C 166.058594 23.328125 165.878906 31.375 167.503906 38.9375 C 168.109375 41.003906 160.820312 38.09375 156 35.691406 C 151.179688 33.292969 144.464844 29.234375 146.488281 28.476562 C 153.519531 25.222656 159.820312 20.222656 160.414062 20.023438 C 160.996094 19.832031 163.296875 21.066406 163.296875 21.066406 C 163.296875 21.066406 163.445312 21.132812 163.667969 21.246094 Z M 163.667969 21.246094 " fill-opacity="1" fill-rule="nonzero"/><path fill="#9cb4cc" d="M 164.402344 19.695312 L 163.726562 19.359375 C 163.535156 19.261719 163.339844 19.25 163.136719 19.316406 C 162.933594 19.382812 162.785156 19.511719 162.691406 19.703125 L 162 21.078125 C 161.90625 21.269531 161.894531 21.464844 161.960938 21.667969 C 162.027344 21.871094 162.15625 22.015625 162.347656 22.113281 L 163.023438 22.449219 C 163.214844 22.542969 163.410156 22.558594 163.613281 22.492188 C 163.816406 22.421875 163.964844 22.292969 164.058594 22.105469 L 164.75 20.726562 C 164.84375 20.535156 164.859375 20.339844 164.789062 20.140625 C 164.722656 19.9375 164.59375 19.789062 164.402344 19.695312 Z M 164.402344 19.695312 " fill-opacity="1" fill-rule="nonzero"/><path fill="#748da6" d="M 198.710938 98.664062 L 182.339844 98.664062 C 182.605469 95.097656 185 90.789062 190.527344 90.789062 C 196.054688 90.789062 198.445312 95.097656 198.710938 98.664062 Z M 198.710938 98.664062 " fill-opacity="1" fill-rule="nonzero"/><path fill="#9cb4cc" d="M 149.316406 0.132812 L 132.679688 0.132812 C 132.003906 0.132812 131.464844 0.675781 131.464844 1.34375 L 131.464844 10.695312 C 131.464844 11.367188 132.003906 11.90625 132.679688 11.90625 L 149.316406 11.90625 C 149.992188 11.90625 150.53125 11.367188 150.53125 10.695312 L 150.53125 1.34375 C 150.53125 0.675781 149.992188 0.132812 149.316406 0.132812 Z M 149.316406 0.132812 " fill-opacity="1" fill-rule="nonzero"/><path fill="#748da6" d="M 150.671875 1 C 151.28125 1 151.78125 1.5 151.78125 2.109375 L 151.78125 12.046875 C 151.78125 12.65625 151.28125 13.152344 150.671875 13.152344 L 133.445312 13.152344 C 132.832031 13.152344 132.332031 12.65625 132.332031 12.046875 L 132.332031 2.109375 C 132.332031 1.5 132.832031 1 133.445312 1 Z M 150.671875 1.378906 L 133.445312 1.378906 C 133.289062 1.378906 133.148438 1.425781 133.03125 1.503906 C 133.371094 1.765625 135.234375 3.179688 137.257812 4.660156 C 138.371094 5.476562 139.507812 6.289062 140.40625 6.898438 C 140.859375 7.203125 141.25 7.457031 141.546875 7.632812 C 141.695312 7.71875 141.820312 7.785156 141.914062 7.828125 C 141.984375 7.863281 142.042969 7.875 142.058594 7.882812 C 142.074219 7.875 142.132812 7.863281 142.203125 7.828125 C 142.296875 7.785156 142.421875 7.71875 142.570312 7.628906 C 142.867188 7.457031 143.261719 7.199219 143.710938 6.894531 C 144.613281 6.285156 145.75 5.46875 146.867188 4.652344 C 148.859375 3.191406 150.695312 1.796875 151.082031 1.5 C 150.964844 1.421875 150.824219 1.378906 150.671875 1.378906 Z M 151.328125 1.789062 C 150.980469 2.054688 149.113281 3.472656 147.089844 4.953125 C 145.972656 5.773438 144.832031 6.59375 143.921875 7.207031 C 143.46875 7.515625 143.074219 7.773438 142.761719 7.957031 C 142.605469 8.046875 142.472656 8.121094 142.363281 8.171875 C 142.25 8.222656 142.171875 8.261719 142.058594 8.261719 C 141.941406 8.261719 141.867188 8.222656 141.753906 8.171875 C 141.640625 8.121094 141.507812 8.046875 141.355469 7.957031 C 141.042969 7.773438 140.648438 7.519531 140.195312 7.210938 C 139.289062 6.597656 138.148438 5.78125 137.035156 4.964844 C 134.984375 3.464844 133.089844 2.023438 132.785156 1.792969 C 132.738281 1.886719 132.710938 1.996094 132.710938 2.109375 L 132.710938 12.046875 C 132.710938 12.453125 133.035156 12.773438 133.445312 12.773438 L 150.671875 12.773438 C 151.078125 12.773438 151.402344 12.453125 151.402344 12.046875 L 151.402344 2.109375 C 151.402344 1.992188 151.375 1.882812 151.328125 1.789062 Z M 151.328125 1.789062 " fill-opacity="1" fill-rule="nonzero"/></g></g><g><g clip-path="url(#1f5de7c4c2)"><path fill="#9cb4cc" d="M 204.746094 46.667969 L 205.414062 46.855469 L 192.507812 92.488281 L 191.839844 92.300781 Z M 204.746094 46.667969 " fill-opacity="1" fill-rule="nonzero"/><path fill="#9cb4cc" d="M 201.800781 46.667969 L 202.46875 46.855469 L 189.558594 92.488281 L 188.894531 92.300781 Z M 201.800781 46.667969 " fill-opacity="1" fill-rule="nonzero"/><path fill="#9cb4cc" d="M 181.148438 15.941406 L 205.351562 46.546875 L 204.808594 46.976562 L 180.601562 16.371094 Z M 181.148438 15.941406 " fill-opacity="1" fill-rule="nonzero"/><path fill="#9cb4cc" d="M 178.929688 16.867188 L 202.40625 46.550781 L 201.863281 46.976562 L 178.386719 17.292969 Z M 178.929688 16.867188 " fill-opacity="1" fill-rule="nonzero"/><path fill="#9cb4cc" d="M 180.957031 16.445312 L 181.164062 17.105469 L 158.289062 24.277344 L 158.082031 23.617188 Z M 180.957031 16.445312 " fill-opacity="1" fill-rule="nonzero"/><path fill="#f2d7d9" d="M 168.328125 99.050781 L 190.425781 199.652344 L 185.296875 200.398438 L 164.96875 99.753906 Z M 168.328125 99.050781 " fill-opacity="1" fill-rule="nonzero"/><g clip-path="url(#92b41bc751)"><path fill="#f2d7d9" d="M 194.453125 99.050781 L 216.550781 199.652344 L 211.417969 200.398438 L 191.09375 99.753906 Z M 194.453125 99.050781 " fill-opacity="1" fill-rule="nonzero"/></g><path fill="#f2d7d9" d="M 73.445312 131.078125 L 62.363281 204.003906 L 58.742188 203.1875 L 71.019531 130.691406 Z M 73.445312 131.078125 " fill-opacity="1" fill-rule="nonzero"/><path fill="#f2d7d9" d="M 87.351562 44.953125 C 90.460938 44.527344 79.125 38.996094 65.875 44.289062 C 52.625 49.585938 41.949219 110.164062 54.824219 127.519531 C 67.703125 144.878906 94.746094 143.445312 94.746094 143.445312 L 133.796875 137.910156 Z M 87.351562 44.953125 " fill-opacity="1" fill-rule="nonzero"/><path fill="#9cb4cc" d="M 64.394531 45.117188 C 71.261719 45.152344 57.523438 109.527344 68.132812 124.246094 C 79.40625 139.882812 97.71875 136.265625 97.71875 136.265625 L 98.453125 142.925781 L 94.742188 143.449219 C 94.742188 143.449219 94.636719 143.457031 94.4375 143.460938 C 94.234375 143.46875 93.9375 143.476562 93.554688 143.476562 C 93.308594 143.480469 93.007812 143.476562 92.691406 143.476562 C 92.566406 143.472656 92.441406 143.472656 92.304688 143.472656 C 92.230469 143.46875 92.15625 143.46875 92.082031 143.46875 C 91.832031 143.460938 91.574219 143.457031 91.296875 143.445312 C 91.019531 143.4375 90.726562 143.421875 90.421875 143.410156 C 90.335938 143.40625 90.246094 143.398438 90.15625 143.394531 C 89.929688 143.382812 89.695312 143.367188 89.453125 143.355469 C 89.347656 143.347656 89.242188 143.339844 89.136719 143.332031 C 88.800781 143.308594 88.453125 143.285156 88.09375 143.253906 C 88.09375 143.253906 88.085938 143.253906 88.085938 143.253906 C 87.816406 143.230469 87.542969 143.207031 87.265625 143.179688 C 87.210938 143.175781 87.15625 143.167969 87.105469 143.164062 C 86.824219 143.136719 86.539062 143.105469 86.246094 143.074219 C 85.785156 143.023438 85.3125 142.964844 84.828125 142.902344 C 83.898438 142.777344 82.929688 142.632812 81.925781 142.453125 C 81.425781 142.363281 80.914062 142.265625 80.398438 142.160156 C 79.882812 142.058594 79.359375 141.945312 78.828125 141.820312 C 78.765625 141.808594 78.703125 141.792969 78.636719 141.777344 C 78.238281 141.683594 77.835938 141.585938 77.429688 141.480469 C 77.359375 141.464844 77.292969 141.445312 77.226562 141.429688 C 77.128906 141.402344 77.027344 141.375 76.929688 141.351562 C 76.757812 141.304688 76.585938 141.257812 76.414062 141.210938 C 76.25 141.167969 76.085938 141.121094 75.921875 141.074219 C 75.8125 141.042969 75.703125 141.011719 75.597656 140.980469 C 74.503906 140.660156 73.398438 140.300781 72.289062 139.898438 C 72.277344 139.894531 72.269531 139.890625 72.257812 139.886719 C 72.019531 139.800781 71.78125 139.710938 71.542969 139.617188 C 71.464844 139.589844 71.390625 139.5625 71.316406 139.53125 C 71.128906 139.457031 70.941406 139.382812 70.753906 139.308594 C 70.6875 139.28125 70.621094 139.253906 70.554688 139.226562 C 70.308594 139.128906 70.066406 139.027344 69.820312 138.921875 C 69.8125 138.917969 69.800781 138.914062 69.792969 138.910156 C 69.242188 138.675781 68.6875 138.425781 68.140625 138.164062 C 67.863281 138.03125 67.589844 137.898438 67.316406 137.757812 C 67.183594 137.691406 67.054688 137.625 66.921875 137.554688 C 66.78125 137.484375 66.640625 137.410156 66.5 137.335938 C 65.957031 137.046875 65.417969 136.746094 64.882812 136.429688 C 64.613281 136.273438 64.347656 136.113281 64.085938 135.945312 C 63.953125 135.863281 63.820312 135.78125 63.6875 135.695312 C 63.425781 135.527344 63.164062 135.355469 62.902344 135.179688 C 62.773438 135.09375 62.644531 135.003906 62.515625 134.914062 C 62.425781 134.851562 62.332031 134.785156 62.242188 134.722656 C 62.203125 134.695312 62.167969 134.667969 62.128906 134.640625 C 62.09375 134.617188 62.058594 134.589844 62.023438 134.566406 C 61.929688 134.496094 61.839844 134.429688 61.746094 134.363281 C 61.492188 134.175781 61.238281 133.984375 60.988281 133.789062 C 60.886719 133.710938 60.789062 133.632812 60.691406 133.554688 C 60.664062 133.535156 60.640625 133.515625 60.613281 133.496094 C 60.589844 133.476562 60.566406 133.457031 60.542969 133.4375 C 60.441406 133.355469 60.339844 133.277344 60.242188 133.195312 C 60.074219 133.054688 59.90625 132.914062 59.738281 132.769531 C 59.707031 132.742188 59.675781 132.71875 59.644531 132.691406 C 59.480469 132.546875 59.3125 132.402344 59.148438 132.253906 C 58.789062 131.933594 58.433594 131.601562 58.085938 131.257812 C 57.96875 131.144531 57.855469 131.03125 57.742188 130.914062 C 57.625 130.800781 57.511719 130.683594 57.398438 130.566406 C 57.398438 130.5625 57.398438 130.5625 57.398438 130.5625 C 56.496094 129.621094 55.632812 128.609375 54.828125 127.523438 C 42.4375 110.816406 51.859375 54.070312 64.402344 45.117188 Z M 64.394531 45.117188 " fill-opacity="1" fill-rule="nonzero"/><path fill="#9cb4cc" d="M 76.011719 83.507812 C 76.011719 83.507812 68.347656 124.992188 78.40625 131.875 C 85.546875 136.765625 87.570312 137.207031 86.609375 154 C 85.859375 167.136719 78.984375 187.914062 79.140625 198.425781 C 79.21875 203.636719 82.625 206.609375 95.460938 210.128906 C 108.300781 213.652344 164.054688 208.238281 165.347656 203.40625 C 163.578125 166.746094 156.425781 138.769531 146.515625 128.230469 C 136.605469 117.695312 127.738281 119.871094 128.390625 96.84375 Z M 76.011719 83.507812 " fill-opacity="1" fill-rule="nonzero"/><path fill="#748da6" d="M 91.21875 94.445312 C 102.917969 94.457031 116.800781 96.964844 128.382812 97.292969 C 127.855469 119.84375 136.671875 117.769531 146.515625 128.234375 C 147.285156 129.050781 148.035156 129.972656 148.765625 130.992188 C 130.707031 135.867188 101.535156 122.210938 84.273438 136.453125 C 82.929688 134.851562 81.007812 133.660156 78.40625 131.878906 C 72.25 127.664062 72.734375 110.492188 74.039062 97.796875 C 78.46875 95.257812 84.480469 94.4375 91.21875 94.445312 Z M 91.21875 94.445312 " fill-opacity="1" fill-rule="nonzero"/><path fill="#9cb4cc" d="M 125.75 71.378906 C 117.648438 76.355469 98.128906 104 118.871094 104.777344 C 126.832031 101.949219 141.976562 93.339844 142.835938 89.507812 C 143.695312 85.675781 128.21875 54.238281 124.03125 50.761719 C 120.996094 48.238281 114.90625 44.25 110.585938 43.839844 C 109.746094 46.617188 106.984375 48.226562 104.84375 48.277344 C 102.707031 48.332031 100.070312 46.917969 98.984375 44.042969 C 94.808594 44.460938 86.757812 47.160156 84.414062 48.757812 C 80.058594 51.722656 68.265625 85.675781 69.125 89.507812 C 69.984375 93.34375 85.132812 101.949219 93.089844 104.777344 C 118 92.230469 84.886719 86.277344 86.210938 71.378906 L 79.332031 104.265625 L 132.628906 104.265625 Z M 125.75 71.378906 " fill-opacity="1" fill-rule="nonzero"/><path fill="#d3cedf" d="M 107.132812 5.367188 C 110.386719 5.367188 113.457031 6.128906 115.847656 6.695312 C 117.847656 7.167969 126.050781 10.96875 124.402344 30.613281 C 123.585938 40.328125 127.429688 51.375 129.453125 56.113281 C 131.378906 60.621094 142.207031 82.277344 143.421875 86.800781 C 144.640625 91.328125 128.679688 88.269531 114.621094 99.839844 C 103.636719 99.660156 102.667969 97.734375 94.839844 92.089844 C 89.789062 88.449219 79.925781 95.320312 75.570312 100.714844 C 67.558594 110.636719 60.226562 101.839844 60.488281 101.339844 C 70.527344 73.207031 84.210938 33.925781 90.753906 17.988281 C 94.941406 7.773438 101.332031 5.367188 107.132812 5.367188 Z M 107.132812 5.367188 " fill-opacity="1" fill-rule="nonzero"/><path fill="#ffe6d5" d="M 114.644531 8.890625 C 114.742188 8.890625 114.835938 8.894531 114.929688 8.898438 C 121 9.277344 123.746094 18.890625 123.136719 28.617188 C 122.527344 38.34375 114.128906 41.621094 112.421875 41.511719 C 110.710938 41.40625 98.832031 35.351562 99.246094 28.742188 C 99.847656 19.164062 108.582031 8.847656 114.644531 8.890625 Z M 114.644531 8.890625 " fill-opacity="1" fill-rule="nonzero"/><path fill="#f2d7d9" d="M 213.152344 98.664062 L 54.835938 98.664062 L 54.835938 105.960938 L 213.152344 105.960938 Z M 213.152344 98.664062 " fill-opacity="1" fill-rule="nonzero"/><path fill="#748da6" d="M 157.589844 68.410156 L 106.808594 68.410156 L 103.734375 98.664062 L 149.792969 98.664062 Z M 157.589844 68.410156 " fill-opacity="1" fill-rule="nonzero"/><path fill="#d3cedf" d="M 125.511719 84.003906 C 125.183594 85.835938 127.921875 87.320312 128.796875 87.320312 C 129.671875 87.320312 132.945312 85.835938 133.273438 84.003906 C 133.601562 82.175781 131.453125 80.820312 129.53125 82.730469 C 127.914062 80.800781 125.839844 82.175781 125.511719 84.003906 Z M 125.511719 84.003906 " fill-opacity="1" fill-rule="nonzero"/><path fill="#f2d7d9" d="M 111.84375 36.125 C 111.839844 36.164062 111.894531 36.207031 112 36.253906 C 112.109375 36.296875 112.265625 36.34375 112.472656 36.390625 C 112.675781 36.4375 112.914062 36.480469 113.183594 36.519531 C 113.449219 36.558594 113.730469 36.59375 114.023438 36.617188 C 114.316406 36.644531 114.601562 36.664062 114.871094 36.675781 C 115.144531 36.6875 115.382812 36.6875 115.59375 36.679688 C 115.804688 36.671875 115.964844 36.65625 116.082031 36.632812 C 116.195312 36.605469 116.257812 36.574219 116.257812 36.535156 C 116.261719 36.5 116.210938 36.457031 116.101562 36.410156 C 115.992188 36.367188 115.835938 36.320312 115.632812 36.273438 C 115.425781 36.226562 115.191406 36.183594 114.921875 36.144531 C 114.652344 36.105469 114.371094 36.070312 114.078125 36.042969 C 113.785156 36.015625 113.503906 35.996094 113.230469 35.988281 C 112.960938 35.976562 112.71875 35.976562 112.507812 35.984375 C 112.300781 35.992188 112.136719 36.007812 112.023438 36.03125 C 111.90625 36.058594 111.847656 36.089844 111.84375 36.125 Z M 111.84375 36.125 " fill-opacity="1" fill-rule="nonzero"/><path fill="#f2d7d9" d="M 107.132812 5.367188 C 109.703125 5.371094 112.15625 5.84375 114.253906 6.324219 C 114.28125 6.328125 114.308594 6.335938 114.335938 6.34375 C 112.109375 6.171875 109.882812 6.984375 107.613281 8.53125 C 101.898438 12.425781 96.875 21.214844 95.910156 25.261719 L 91.839844 24.296875 C 93.046875 19.230469 98.140625 10.648438 104.238281 5.589844 C 105.210938 5.433594 106.179688 5.367188 107.132812 5.367188 Z M 107.132812 5.367188 " fill-opacity="1" fill-rule="nonzero"/><path fill="#f2d7d9" d="M 94.300781 24.644531 C 95.824219 29.375 97.816406 31.90625 100.148438 33.382812 C 102.480469 34.863281 105.203125 35.300781 108.21875 35.683594 L 108.109375 36.558594 C 105.078125 36.175781 102.203125 35.734375 99.671875 34.128906 C 97.144531 32.527344 95.019531 29.773438 93.457031 24.914062 Z M 94.300781 24.644531 " fill-opacity="1" fill-rule="nonzero"/><path fill="#748da6" d="M 92.46875 28.800781 C 92.90625 28.964844 93.347656 29.050781 93.796875 29.050781 C 94.246094 29.050781 94.667969 28.96875 95.058594 28.804688 C 95.453125 28.640625 95.789062 28.40625 96.066406 28.101562 C 96.347656 27.796875 96.546875 27.445312 96.667969 27.046875 C 96.789062 26.648438 96.820312 26.234375 96.765625 25.800781 C 96.710938 25.371094 96.570312 24.953125 96.347656 24.554688 C 96.128906 24.15625 95.835938 23.804688 95.480469 23.5 C 95.125 23.191406 94.730469 22.957031 94.292969 22.792969 C 93.859375 22.625 93.417969 22.542969 92.96875 22.542969 C 92.519531 22.539062 92.097656 22.621094 91.703125 22.789062 C 91.308594 22.953125 90.972656 23.1875 90.695312 23.492188 C 90.417969 23.796875 90.21875 24.148438 90.097656 24.546875 C 89.976562 24.945312 89.941406 25.359375 89.996094 25.789062 C 90.054688 26.222656 90.191406 26.636719 90.414062 27.035156 C 90.636719 27.433594 90.925781 27.789062 91.28125 28.09375 C 91.636719 28.398438 92.035156 28.632812 92.46875 28.800781 Z M 92.46875 28.800781 " fill-opacity="1" fill-rule="nonzero"/><path fill="#748da6" d="M 108.296875 37.355469 C 108.492188 37.394531 108.6875 37.402344 108.875 37.382812 C 109.066406 37.363281 109.238281 37.320312 109.394531 37.246094 C 109.550781 37.175781 109.679688 37.082031 109.777344 36.96875 C 109.878906 36.855469 109.941406 36.730469 109.96875 36.589844 C 109.992188 36.453125 109.980469 36.3125 109.933594 36.167969 C 109.882812 36.027344 109.796875 35.894531 109.679688 35.769531 C 109.558594 35.644531 109.414062 35.539062 109.246094 35.453125 C 109.078125 35.363281 108.894531 35.300781 108.699219 35.265625 C 108.503906 35.226562 108.3125 35.21875 108.121094 35.238281 C 107.933594 35.253906 107.761719 35.300781 107.601562 35.371094 C 107.445312 35.445312 107.320312 35.539062 107.21875 35.652344 C 107.121094 35.765625 107.058594 35.890625 107.03125 36.03125 C 107.003906 36.167969 107.015625 36.308594 107.066406 36.453125 C 107.117188 36.59375 107.199219 36.726562 107.320312 36.851562 C 107.4375 36.976562 107.582031 37.082031 107.753906 37.167969 C 107.921875 37.257812 108.105469 37.320312 108.296875 37.355469 Z M 108.296875 37.355469 " fill-opacity="1" fill-rule="nonzero"/><path fill="#f2d7d9" d="M 61.347656 2.820312 L 80.320312 2.820312 C 80.550781 2.820312 80.773438 2.867188 80.984375 2.953125 C 81.199219 3.042969 81.386719 3.167969 81.546875 3.328125 C 81.710938 3.492188 81.835938 3.679688 81.925781 3.890625 C 82.011719 4.101562 82.058594 4.324219 82.058594 4.554688 L 82.058594 12.8125 C 82.058594 13.042969 82.011719 13.261719 81.925781 13.472656 C 81.835938 13.6875 81.710938 13.875 81.546875 14.035156 C 81.386719 14.199219 81.199219 14.324219 80.984375 14.410156 C 80.773438 14.5 80.550781 14.542969 80.320312 14.542969 L 61.347656 14.542969 C 61.117188 14.542969 60.894531 14.5 60.683594 14.410156 C 60.46875 14.324219 60.28125 14.199219 60.121094 14.035156 C 59.957031 13.875 59.832031 13.6875 59.742188 13.472656 C 59.65625 13.261719 59.609375 13.042969 59.609375 12.8125 L 59.609375 4.554688 C 59.609375 4.324219 59.65625 4.101562 59.742188 3.890625 C 59.832031 3.679688 59.957031 3.492188 60.121094 3.328125 C 60.28125 3.167969 60.46875 3.042969 60.683594 2.953125 C 60.894531 2.867188 61.117188 2.820312 61.347656 2.820312 Z M 61.347656 2.820312 " fill-opacity="1" fill-rule="nonzero"/><path fill="#f2d7d9" d="M 75.914062 13.914062 L 78.96875 18.839844 L 79 12.386719 Z M 75.914062 13.914062 " fill-opacity="1" fill-rule="nonzero"/><path fill="#748da6" d="M 77.574219 5.371094 C 77.648438 5.371094 77.6875 5.410156 77.6875 5.480469 C 77.683594 5.554688 77.648438 5.59375 77.574219 5.59375 L 61.414062 5.59375 C 61.339844 5.59375 61.304688 5.554688 61.300781 5.480469 C 61.300781 5.410156 61.339844 5.371094 61.414062 5.371094 Z M 80.398438 8.292969 C 80.472656 8.292969 80.507812 8.328125 80.507812 8.402344 C 80.507812 8.476562 80.472656 8.515625 80.398438 8.511719 L 76.46875 8.511719 C 76.394531 8.511719 76.355469 8.476562 76.355469 8.402344 C 76.359375 8.328125 76.394531 8.292969 76.46875 8.292969 Z M 75.859375 8.292969 C 75.933594 8.292969 75.96875 8.328125 75.96875 8.402344 C 75.96875 8.476562 75.933594 8.515625 75.859375 8.511719 L 65.269531 8.511719 C 65.195312 8.515625 65.160156 8.476562 65.160156 8.402344 C 65.160156 8.328125 65.195312 8.292969 65.269531 8.292969 Z M 64.878906 8.292969 C 64.953125 8.292969 64.988281 8.328125 64.988281 8.402344 C 64.988281 8.476562 64.953125 8.511719 64.878906 8.511719 L 61.414062 8.511719 C 61.339844 8.515625 61.300781 8.476562 61.300781 8.402344 C 61.304688 8.328125 61.339844 8.292969 61.414062 8.292969 Z M 80.398438 11.214844 C 80.472656 11.214844 80.507812 11.25 80.507812 11.324219 C 80.507812 11.398438 80.472656 11.433594 80.398438 11.433594 L 68.167969 11.433594 C 68.09375 11.433594 68.054688 11.398438 68.054688 11.324219 C 68.054688 11.25 68.09375 11.214844 68.167969 11.214844 Z M 66.726562 11.214844 C 66.800781 11.214844 66.839844 11.25 66.835938 11.324219 C 66.835938 11.398438 66.800781 11.433594 66.726562 11.433594 L 61.414062 11.433594 C 61.339844 11.433594 61.304688 11.398438 61.304688 11.324219 C 61.304688 11.25 61.339844 11.214844 61.414062 11.214844 Z M 66.726562 11.214844 " fill-opacity="1" fill-rule="nonzero"/><path fill="#748da6" d="M 114.09375 108.832031 C 119.207031 108.824219 124.390625 109.117188 129.5 109.785156 C 132.144531 119.570312 139.03125 120.277344 146.515625 128.234375 C 153.507812 135.664062 159.125 151.777344 162.453125 173.492188 C 158.390625 157.335938 151.855469 134.277344 136.058594 133.722656 C 127.421875 133.417969 120.648438 136.558594 112.8125 134.605469 C 91.378906 129.261719 89.824219 151.035156 83.140625 177.003906 C 82.96875 177.675781 82.71875 177.910156 82.40625 177.773438 C 84.238281 169.449219 86.226562 160.726562 86.609375 154 C 87.570312 137.207031 85.546875 136.765625 78.402344 131.875 C 75.015625 129.558594 73.640625 123.308594 73.304688 116.042969 C 77.515625 112.542969 84.871094 111.789062 89.5625 110.976562 C 97.097656 109.675781 105.496094 108.835938 114.089844 108.828125 Z M 114.09375 108.832031 " fill-opacity="1" fill-rule="nonzero"/><path fill="#f2d7d9" d="M 54.835938 98.664062 L 16.125 98.664062 L 16.125 105.960938 L 54.835938 105.960938 Z M 54.835938 98.664062 " fill-opacity="1" fill-rule="nonzero"/><path fill="#f2d7d9" d="M 48.027344 99.050781 L 25.929688 199.652344 L 31.0625 200.398438 L 51.386719 99.753906 Z M 48.027344 99.050781 " fill-opacity="1" fill-rule="nonzero"/><g clip-path="url(#651b17440a)"><path fill="#f2d7d9" d="M 21.90625 99.050781 L -0.191406 199.652344 L 4.9375 200.398438 L 25.261719 99.753906 Z M 21.90625 99.050781 " fill-opacity="1" fill-rule="nonzero"/></g><path fill="#748da6" d="M 200.308594 46.910156 C 200.308594 47.296875 200.382812 47.667969 200.53125 48.023438 C 200.679688 48.382812 200.890625 48.695312 201.164062 48.96875 C 201.4375 49.242188 201.753906 49.453125 202.109375 49.601562 C 202.46875 49.746094 202.839844 49.820312 203.226562 49.820312 C 203.613281 49.820312 203.984375 49.746094 204.34375 49.601562 C 204.699219 49.453125 205.015625 49.242188 205.289062 48.96875 C 205.5625 48.695312 205.773438 48.382812 205.921875 48.023438 C 206.070312 47.667969 206.144531 47.296875 206.144531 46.910156 C 206.144531 46.527344 206.070312 46.152344 205.921875 45.796875 C 205.773438 45.441406 205.5625 45.125 205.289062 44.851562 C 205.015625 44.582031 204.699219 44.371094 204.34375 44.222656 C 203.984375 44.074219 203.613281 44 203.226562 44 C 202.839844 44 202.46875 44.074219 202.109375 44.222656 C 201.753906 44.371094 201.4375 44.582031 201.164062 44.851562 C 200.890625 45.125 200.679688 45.441406 200.53125 45.796875 C 200.382812 46.152344 200.308594 46.527344 200.308594 46.910156 Z M 200.308594 46.910156 " fill-opacity="1" fill-rule="nonzero"/><path fill="#748da6" d="M 177.613281 16.953125 C 177.613281 17.234375 177.667969 17.503906 177.773438 17.761719 C 177.882812 18.019531 178.035156 18.246094 178.234375 18.445312 C 178.429688 18.640625 178.660156 18.792969 178.917969 18.898438 C 179.175781 19.007812 179.445312 19.058594 179.726562 19.058594 C 180.003906 19.058594 180.273438 19.007812 180.535156 18.898438 C 180.792969 18.792969 181.019531 18.640625 181.21875 18.445312 C 181.417969 18.246094 181.570312 18.019531 181.675781 17.761719 C 181.785156 17.503906 181.835938 17.234375 181.835938 16.953125 C 181.835938 16.675781 181.785156 16.40625 181.675781 16.148438 C 181.570312 15.890625 181.417969 15.664062 181.21875 15.464844 C 181.019531 15.269531 180.792969 15.117188 180.535156 15.007812 C 180.273438 14.902344 180.003906 14.847656 179.726562 14.847656 C 179.445312 14.847656 179.175781 14.902344 178.917969 15.007812 C 178.660156 15.117188 178.429688 15.269531 178.234375 15.464844 C 178.035156 15.664062 177.882812 15.890625 177.773438 16.148438 C 177.667969 16.40625 177.613281 16.675781 177.613281 16.953125 Z M 177.613281 16.953125 " fill-opacity="1" fill-rule="nonzero"/><path fill="#9cb4cc" d="M 163.667969 21.246094 C 164.347656 21.578125 165.714844 22.300781 165.863281 22.734375 C 166.058594 23.328125 165.878906 31.375 167.503906 38.9375 C 168.109375 41.003906 160.820312 38.09375 156 35.691406 C 151.179688 33.292969 144.464844 29.234375 146.488281 28.476562 C 153.519531 25.222656 159.820312 20.222656 160.414062 20.023438 C 160.996094 19.832031 163.296875 21.066406 163.296875 21.066406 C 163.296875 21.066406 163.445312 21.132812 163.667969 21.246094 Z M 163.667969 21.246094 " fill-opacity="1" fill-rule="nonzero"/><path fill="#9cb4cc" d="M 164.402344 19.695312 L 163.726562 19.359375 C 163.535156 19.261719 163.339844 19.25 163.136719 19.316406 C 162.933594 19.382812 162.785156 19.511719 162.691406 19.703125 L 162 21.078125 C 161.90625 21.269531 161.894531 21.464844 161.960938 21.667969 C 162.027344 21.871094 162.15625 22.015625 162.347656 22.113281 L 163.023438 22.449219 C 163.214844 22.542969 163.410156 22.558594 163.613281 22.492188 C 163.816406 22.421875 163.964844 22.292969 164.058594 22.105469 L 164.75 20.726562 C 164.84375 20.535156 164.859375 20.339844 164.789062 20.140625 C 164.722656 19.9375 164.59375 19.789062 164.402344 19.695312 Z M 164.402344 19.695312 " fill-opacity="1" fill-rule="nonzero"/><path fill="#748da6" d="M 198.710938 98.664062 L 182.339844 98.664062 C 182.605469 95.097656 185 90.789062 190.527344 90.789062 C 196.054688 90.789062 198.445312 95.097656 198.710938 98.664062 Z M 198.710938 98.664062 " fill-opacity="1" fill-rule="nonzero"/><path fill="#9cb4cc" d="M 149.316406 0.132812 L 132.679688 0.132812 C 132.003906 0.132812 131.464844 0.675781 131.464844 1.34375 L 131.464844 10.695312 C 131.464844 11.367188 132.003906 11.90625 132.679688 11.90625 L 149.316406 11.90625 C 149.992188 11.90625 150.53125 11.367188 150.53125 10.695312 L 150.53125 1.34375 C 150.53125 0.675781 149.992188 0.132812 149.316406 0.132812 Z M 149.316406 0.132812 " fill-opacity="1" fill-rule="nonzero"/><path fill="#748da6" d="M 150.671875 1 C 151.28125 1 151.78125 1.5 151.78125 2.109375 L 151.78125 12.046875 C 151.78125 12.65625 151.28125 13.152344 150.671875 13.152344 L 133.445312 13.152344 C 132.832031 13.152344 132.332031 12.65625 132.332031 12.046875 L 132.332031 2.109375 C 132.332031 1.5 132.832031 1 133.445312 1 Z M 150.671875 1.378906 L 133.445312 1.378906 C 133.289062 1.378906 133.148438 1.425781 133.03125 1.503906 C 133.371094 1.765625 135.234375 3.179688 137.257812 4.660156 C 138.371094 5.476562 139.507812 6.289062 140.40625 6.898438 C 140.859375 7.203125 141.25 7.457031 141.546875 7.632812 C 141.695312 7.71875 141.820312 7.785156 141.914062 7.828125 C 141.984375 7.863281 142.042969 7.875 142.058594 7.882812 C 142.074219 7.875 142.132812 7.863281 142.203125 7.828125 C 142.296875 7.785156 142.421875 7.71875 142.570312 7.628906 C 142.867188 7.457031 143.261719 7.199219 143.710938 6.894531 C 144.613281 6.285156 145.75 5.46875 146.867188 4.652344 C 148.859375 3.191406 150.695312 1.796875 151.082031 1.5 C 150.964844 1.421875 150.824219 1.378906 150.671875 1.378906 Z M 151.328125 1.789062 C 150.980469 2.054688 149.113281 3.472656 147.089844 4.953125 C 145.972656 5.773438 144.832031 6.59375 143.921875 7.207031 C 143.46875 7.515625 143.074219 7.773438 142.761719 7.957031 C 142.605469 8.046875 142.472656 8.121094 142.363281 8.171875 C 142.25 8.222656 142.171875 8.261719 142.058594 8.261719 C 141.941406 8.261719 141.867188 8.222656 141.753906 8.171875 C 141.640625 8.121094 141.507812 8.046875 141.355469 7.957031 C 141.042969 7.773438 140.648438 7.519531 140.195312 7.210938 C 139.289062 6.597656 138.148438 5.78125 137.035156 4.964844 C 134.984375 3.464844 133.089844 2.023438 132.785156 1.792969 C 132.738281 1.886719 132.710938 1.996094 132.710938 2.109375 L 132.710938 12.046875 C 132.710938 12.453125 133.035156 12.773438 133.445312 12.773438 L 150.671875 12.773438 C 151.078125 12.773438 151.402344 12.453125 151.402344 12.046875 L 151.402344 2.109375 C 151.402344 1.992188 151.375 1.882812 151.328125 1.789062 Z M 151.328125 1.789062 " fill-opacity="1" fill-rule="nonzero"/></g></g></g></svg>